<?xml version="1.0" encoding="UTF-8"?>
<!DOCTYPE svg PUBLIC "-//W3C//DTD SVG 1.1//EN" "http://www.w3.org/Graphics/SVG/1.1/DTD/svg11.dtd">
<svg xmlns="http://www.w3.org/2000/svg" version="1.1" width="1000px" height="1000px" style="shape-rendering:geometricPrecision; text-rendering:geometricPrecision; image-rendering:optimizeQuality; fill-rule:evenodd; clip-rule:evenodd" xmlns:xlink="http://www.w3.org/1999/xlink">
<g><path style="opacity:0.993" fill="#fefffe" d="M 388.5,142.5 C 535.167,142.333 681.834,142.5 828.5,143C 772.5,199 716.5,255 660.5,311C 545.834,311.5 431.167,311.667 316.5,311.5C 316.5,363.833 316.5,416.167 316.5,468.5C 298.167,468.5 279.833,468.5 261.5,468.5C 261.5,398.833 261.5,329.167 261.5,259.5C 386.167,259.667 510.834,259.5 635.5,259C 656.531,238.302 677.864,217.968 699.5,198C 595.83,197.749 492.164,197.249 388.5,196.5C 388.5,178.5 388.5,160.5 388.5,142.5 Z"/></g>
<g><path style="opacity:0.992" fill="#fefffe" d="M 394.5,366.5 C 410.5,366.5 426.5,366.5 442.5,366.5C 442.5,383.5 442.5,400.5 442.5,417.5C 519.501,417.333 596.501,417.5 673.5,418C 617.137,473.363 560.471,528.363 503.5,583C 441.168,583.5 378.834,583.667 316.5,583.5C 316.333,655.167 316.5,726.834 317,798.5C 342.365,774.133 368.032,750.133 394,726.5C 394.5,696.502 394.667,666.502 394.5,636.5C 410.5,636.5 426.5,636.5 442.5,636.5C 442.667,675.168 442.5,713.835 442,752.5C 382.261,806.617 322.428,860.617 262.5,914.5C 261.5,787.502 261.167,660.502 261.5,533.5C 333.83,534.556 406.163,534.722 478.5,534C 502.5,510 526.5,486 550.5,462C 498.501,461.5 446.501,461.333 394.5,461.5C 394.5,429.833 394.5,398.167 394.5,366.5 Z"/></g>
</svg>
